<?xml version="1.0" standalone="no"?>
<!DOCTYPE svg PUBLIC "-//W3C//DTD SVG 20010904//EN"
 "http://www.w3.org/TR/2001/REC-SVG-20010904/DTD/svg10.dtd">
<svg version="1.0" xmlns="http://www.w3.org/2000/svg"
 width="1047.000000pt" height="1500.000000pt" viewBox="0 0 1047.000000 1500.000000"
 preserveAspectRatio="xMidYMid meet">

<g transform="translate(0.000000,1500.000000) scale(0.100000,-0.100000)"
fill="#000000" stroke="none">
<path d="M0 7500 l0 -7500 5235 0 5235 0 0 7500 0 7500 -5235 0 -5235 0 0
-7500z m5405 4970 c147 -46 287 -130 444 -264 45 -38 275 -267 512 -508 l431
-438 649 0 c396 0 687 -4 746 -11 137 -15 273 -52 372 -101 163 -80 296 -243
360 -438 66 -206 75 -344 66 -1050 l-7 -585 460 -455 c479 -474 561 -567 645
-728 162 -308 133 -575 -94 -884 -39 -52 -240 -261 -536 -559 l-475 -477 7
-613 c7 -645 3 -777 -35 -949 -52 -240 -159 -411 -326 -520 -84 -55 -177 -91
-312 -122 -94 -21 -118 -22 -832 -25 l-735 -4 -495 -493 c-286 -284 -529 -517
-575 -552 -98 -73 -215 -134 -315 -166 -61 -19 -97 -23 -190 -23 -140 1 -207
17 -345 85 -175 85 -269 167 -780 679 l-470 471 -643 0 c-377 0 -683 4 -740
10 -387 42 -620 208 -730 520 -69 196 -73 258 -72 1004 l1 650 -469 470 c-300
301 -492 501 -532 555 -80 110 -164 283 -186 385 -33 156 -9 327 68 481 73
144 124 202 625 705 l493 496 0 675 c-1 695 3 790 40 936 99 383 334 576 762
622 58 7 367 11 770 11 l672 0 516 514 c442 440 528 522 608 574 104 68 210
115 305 137 88 20 252 13 342 -15z"/>
<path d="M5049 12337 c-101 -31 -212 -95 -323 -189 -50 -42 -273 -259 -496
-482 l-405 -406 273 0 273 0 24 -25 c14 -13 25 -33 25 -45 0 -11 -11 -32 -25
-45 l-24 -25 -343 0 -342 0 -252 -251 c-236 -235 -254 -251 -281 -245 -34 8
-63 40 -63 69 0 14 69 90 202 224 l202 203 -615 0 c-363 0 -649 -4 -699 -10
-337 -41 -535 -202 -610 -493 -43 -170 -45 -213 -42 -842 2 -329 5 -601 8
-604 2 -3 100 91 217 207 117 117 219 212 226 212 16 0 54 -20 63 -34 4 -6 8
-25 8 -41 0 -26 -35 -65 -260 -290 l-260 -260 0 -1488 0 -1488 1055 -1054
1055 -1055 364 0 365 0 20 -26 c26 -33 26 -55 2 -85 l-19 -24 -296 -5 -295 -5
417 -421 c445 -450 526 -520 687 -599 253 -124 469 -93 722 104 48 38 279 261
513 495 l425 426 -296 0 c-268 0 -299 2 -317 18 -35 29 -38 67 -8 96 l25 26
368 0 367 0 242 241 c227 226 243 240 274 237 42 -4 75 -45 65 -79 -4 -13 -91
-109 -194 -212 l-186 -188 665 4 c728 4 724 4 887 67 240 92 367 298 403 649
11 111 14 1188 4 1216 -5 13 -59 -36 -233 -209 -199 -198 -231 -226 -258 -226
-35 0 -73 38 -73 73 0 14 93 115 280 302 l280 280 0 1490 0 1490 -1053 1053
-1052 1052 -373 0 -373 0 -24 25 c-14 13 -25 33 -25 45 0 12 11 32 25 45 l24
25 301 0 c165 0 300 4 300 8 0 15 -856 859 -919 906 -175 128 -293 177 -446
183 -83 3 -113 -1 -176 -20z m-934 -2997 c195 -22 364 -86 429 -162 41 -48 56
-97 56 -184 -1 -107 -37 -176 -115 -218 -35 -19 -55 -21 -175 -20 -88 0 -190
9 -295 25 -143 21 -192 24 -470 24 -180 0 -366 -6 -445 -13 -139 -14 -334 -44
-403 -63 l-40 -10 7 -277 c3 -152 9 -376 12 -496 l7 -219 196 7 c113 3 327 21
506 41 395 45 550 53 628 32 129 -34 195 -100 204 -205 9 -97 -11 -157 -72
-218 -77 -77 -135 -92 -395 -104 -113 -5 -241 -14 -285 -20 -44 -5 -224 -14
-399 -20 -188 -5 -324 -14 -330 -20 -6 -6 -6 -99 3 -282 36 -799 31 -999 -29
-1118 -58 -112 -203 -170 -373 -148 -72 10 -106 27 -157 80 -58 61 -65 93 -51
240 32 327 25 904 -20 1608 -26 402 -36 1049 -20 1271 14 192 25 221 106 298
60 57 130 92 215 110 81 16 350 38 630 51 434 19 948 24 1075 10z m1416 -22
c68 -28 134 -102 153 -169 15 -52 27 -242 42 -624 6 -161 -15 -683 -35 -875
-5 -41 -7 -77 -5 -79 1 -1 36 20 76 48 342 236 1202 1035 1508 1401 58 69 138
159 180 202 62 63 84 79 129 92 30 9 76 16 102 16 104 0 222 -66 267 -150 21
-39 23 -55 20 -122 -4 -66 -11 -90 -46 -161 -34 -69 -66 -110 -185 -238 -177
-190 -581 -580 -882 -852 l-40 -36 40 -78 c114 -221 356 -602 525 -828 235
-314 467 -544 710 -703 185 -121 203 -144 204 -257 1 -110 -47 -180 -154 -228
-34 -16 -65 -21 -130 -20 -156 1 -328 66 -504 191 -104 73 -311 278 -415 410
-169 214 -406 567 -620 922 -52 85 -100 165 -107 177 -14 22 -17 20 -190 -107
-96 -71 -247 -177 -335 -236 l-159 -108 0 -100 c0 -56 5 -198 10 -316 14 -329
15 -589 1 -637 -18 -65 -71 -134 -124 -161 -39 -20 -60 -24 -133 -23 -116 0
-184 16 -241 54 -74 50 -99 109 -123 292 -41 307 -38 623 15 1305 13 173 29
403 36 510 14 231 6 626 -16 780 -58 408 -56 512 13 620 67 106 271 150 413
88z"/>
<path d="M7045 11007 c230 -238 1786 -1787 1795 -1787 14 0 13 1046 0 1181
-21 206 -79 374 -168 485 -50 64 -170 145 -254 173 -164 55 -157 54 -843 58
l-640 4 110 -114z"/>
<path d="M8978 8182 c-3 -378 -3 -984 0 -1346 l5 -658 414 414 c231 230 443
451 479 498 110 144 174 302 174 430 0 128 -69 299 -181 452 -38 51 -218 240
-467 491 -224 224 -409 407 -413 407 -3 0 -8 -309 -11 -688z"/>
<path d="M959 8393 c-432 -434 -494 -505 -565 -646 -46 -90 -64 -165 -64 -265
0 -129 31 -227 113 -362 76 -125 151 -207 545 -597 l397 -392 6 252 c8 328 8
1893 0 2200 l-6 238 -426 -428z"/>
<path d="M1526 5283 c-8 -595 0 -741 51 -923 50 -178 164 -319 317 -391 175
-82 177 -82 905 -86 l644 -4 -460 465 c-461 466 -1437 1436 -1445 1436 -3 0
-8 -224 -12 -497z"/>
</g>
</svg>
