<?xml version="1.0" encoding="UTF-8" standalone="no" ?>
<!DOCTYPE svg PUBLIC "-//W3C//DTD SVG 1.1//EN" "http://www.w3.org/Graphics/SVG/1.1/DTD/svg11.dtd">
<svg xmlns="http://www.w3.org/2000/svg" xmlns:xlink="http://www.w3.org/1999/xlink" version="1.1" width="2000" height="1607" viewBox="0 0 2000 1607" xml:space="preserve">
<desc>Created with Fabric.js 4.6.0</desc>
<defs>
</defs>
<g transform="matrix(1.2 0 0 1 1009.08 803.5)" id="LdGE_QaeHqvn5_6u-rmJ3"  >
<g style="" vector-effect="non-scaling-stroke"   >
		<g transform="matrix(4.46 0 0 4.46 0 0)" id="W86KUvqO2YNAPJYROXxAX"  >
<path style="stroke: none; stroke-width: 1; stroke-dasharray: none; stroke-linecap: butt; stroke-dashoffset: 0; stroke-linejoin: miter; stroke-miterlimit: 10; fill: rgb(129,255,217); fill-rule: nonzero; opacity: 1;" vector-effect="non-scaling-stroke"  transform=" translate(-224, -180)" d="M 193.855 44.683 C 195.23299999999998 44.683 196.349 45.799 196.35 47.177 C 196.35 48.555 195.23399999999998 49.671 193.855 49.672 L 170.009 49.672 L 152.84199999999998 66.839 C 151.86899999999997 67.812 150.291 67.812 149.31199999999998 66.839 C 148.33899999999997 65.866 148.33899999999997 64.288 149.31199999999998 63.31 L 162.956 49.665000000000006 L 122.57799999999999 49.665000000000006 C 111.05999999999999 49.665000000000006 103.42699999999999 52.35300000000001 98.76299999999999 57.778000000000006 C 94.02399999999999 63.297000000000004 92.103 71.834 92.103 83.408 C 92.103 83.477 92.103 83.545 92.097 83.614 L 92.309 120.30600000000001 L 107.001 105.614 C 107.974 104.641 109.552 104.641 110.531 105.614 C 111.504 106.587 111.504 108.165 110.531 109.144 L 92.35300000000001 127.322 C 92.55900000000001 163.154 92.546 198.68 92.34 234.512 C 117.82600000000001 259.712 142.957 284.824 168.151 310.303 L 193.531 310.303 C 194.909 310.303 196.025 311.419 196.026 312.798 C 196.026 314.176 194.91 315.29200000000003 193.531 315.29200000000003 L 173.083 315.29200000000003 L 199.025 341.533 L 199.031 341.52700000000004 C 207.219 349.71500000000003 214.608 354.386 221.85500000000002 354.94000000000005 C 229.001 355.48300000000006 236.29700000000003 351.98400000000004 244.44100000000003 343.84700000000004 L 272.99600000000004 315.29200000000003 L 252.27400000000003 315.29200000000003 C 250.89600000000004 315.29200000000003 249.78000000000003 314.17600000000004 249.77900000000002 312.798 C 249.77900000000002 311.42 250.89500000000004 310.304 252.27400000000003 310.303 L 277.985 310.303 L 294.61 293.678 C 295.583 292.705 297.161 292.705 298.139 293.678 C 299.112 294.651 299.112 296.229 298.139 297.20799999999997 L 285.038 310.30999999999995 L 325.415 310.30999999999995 C 336.933 310.30999999999995 344.56600000000003 307.62199999999996 349.23 302.19699999999995 C 353.969 296.67799999999994 355.89000000000004 288.14099999999996 355.89000000000004 276.56699999999995 L 355.903 276.56699999999995 L 355.69100000000003 239.66899999999995 L 339.677 255.68299999999996 C 338.704 256.65599999999995 337.12600000000003 256.65599999999995 336.14700000000005 255.68299999999996 C 335.17400000000004 254.70999999999995 335.17400000000004 253.13199999999998 336.14700000000005 252.15299999999996 L 355.64700000000005 232.65299999999996 C 355.44100000000003 196.82099999999997 355.45400000000006 161.29499999999996 355.66 125.46299999999997 C 330.17400000000004 100.26299999999996 305.043 75.15099999999997 279.84900000000005 49.67199999999997 L 253.70200000000006 49.67199999999997 C 252.32400000000007 49.67199999999997 251.20800000000006 48.55599999999997 251.20700000000005 47.17699999999997 C 251.20700000000005 45.79899999999997 252.32300000000006 44.68299999999997 253.70200000000006 44.68299999999997 L 274.91700000000003 44.68299999999997 L 249.09300000000002 18.55999999999997 C 249.049 18.52299999999997 249.01200000000003 18.48499999999997 248.96900000000002 18.447999999999972 C 240.78100000000003 10.259999999999971 233.39200000000002 5.588999999999972 226.145 5.034999999999972 C 218.99900000000002 4.491999999999972 211.703 7.990999999999971 203.55900000000003 16.12799999999997 L 175.00400000000002 44.68299999999997 L 193.86200000000002 44.68299999999997 z M 122.578 44.683 L 167.945 44.683 L 200.023 12.604999999999997 C 209.271 3.3569999999999975 217.833 -0.5900000000000034 226.507 0.07099999999999618 C 235.07500000000002 0.7199999999999962 243.463 5.894999999999996 252.49200000000002 14.924999999999995 C 252.54200000000003 14.974999999999996 252.586 15.018999999999995 252.62900000000002 15.067999999999996 L 281.90700000000004 44.68299999999999 L 325.415 44.68299999999999 C 338.48600000000005 44.68299999999999 347.334 47.95099999999999 353.009 54.553999999999995 C 358.60900000000004 61.071 360.873 70.655 360.873 83.42099999999999 C 360.873 83.502 360.867 83.577 360.861 83.651 L 360.63599999999997 123.393 L 389.066 151.505 L 389.07199999999995 151.499 C 398.1019999999999 160.529 403.27799999999996 168.91 403.92599999999993 177.48399999999998 C 404.58699999999993 186.158 400.6329999999999 194.71999999999997 391.39199999999994 203.968 L 360.6239999999999 234.736 L 360.86099999999993 276.579 L 360.87299999999993 276.579 C 360.87299999999993 289.344 358.60299999999995 298.92900000000003 353.00899999999996 305.446 C 347.33399999999995 312.05 338.48499999999996 315.31800000000004 325.41499999999996 315.317 L 280.049 315.317 L 247.97099999999998 347.395 C 238.72299999999998 356.643 230.16099999999997 360.59 221.48699999999997 359.929 C 212.91899999999995 359.28 204.53099999999998 354.10499999999996 195.50199999999995 345.075 L 195.50799999999995 345.069 L 166.08699999999996 315.31100000000004 L 122.57799999999996 315.31100000000004 C 109.50699999999996 315.31100000000004 100.65899999999996 312.04300000000006 94.98399999999995 305.439 C 89.38399999999996 298.922 87.11999999999995 289.338 87.12099999999995 276.57300000000004 L 87.13299999999995 276.57300000000004 L 87.36399999999995 236.60100000000003 L 59.07099999999995 208.63200000000003 C 59.02099999999995 208.58800000000002 58.97099999999995 208.54500000000004 58.92799999999995 208.49500000000003 C 49.897999999999946 199.46500000000003 44.72199999999995 191.08400000000003 44.07399999999995 182.51000000000005 C 43.41299999999995 173.83600000000004 47.36699999999995 165.27400000000006 56.60799999999995 156.02600000000004 L 87.37599999999995 125.25800000000004 L 87.13899999999995 83.65100000000004 C 87.13299999999995 83.57600000000004 87.12699999999995 83.49500000000003 87.12699999999995 83.42100000000003 C 87.12699999999995 70.65600000000003 89.39699999999995 61.07100000000003 94.99099999999996 54.55400000000003 C 100.66599999999995 47.95000000000003 109.51499999999996 44.68200000000003 122.58499999999995 44.68300000000003 z M 87.682 179.997 L 87.408 132.27300000000002 L 60.132000000000005 159.54900000000004 C 51.99400000000001 167.68700000000004 48.49600000000001 174.98900000000003 49.038000000000004 182.13600000000002 C 49.587 189.38200000000003 54.264 196.77800000000002 62.45100000000001 204.95900000000003 C 62.48800000000001 204.99600000000004 62.53200000000001 205.04000000000002 62.56400000000001 205.08400000000003 L 87.40100000000001 229.63500000000002 L 87.68200000000002 179.991 z M 92.303 241.483 L 92.103 276.573 L 92.116 276.573 C 92.116 288.15299999999996 94.037 296.69 98.776 302.203 C 103.44 307.635 111.073 310.316 122.591 310.316 L 161.167 310.316 L 127.617 276.38 L 92.309 241.477 z M 325.415 49.672 L 286.84000000000003 49.672 L 320.389 83.608 L 355.697 118.51 L 355.897 83.626 C 355.891 83.557 355.891 83.489 355.89 83.421 C 355.89 71.84100000000001 353.969 63.304 349.22999999999996 57.79100000000001 C 344.566 52.35900000000001 336.93299999999994 49.67800000000001 325.41499999999996 49.67800000000001 z M 360.599 130.352 L 360.318 179.997 L 360.592 227.721 L 387.868 200.445 C 396.006 192.307 399.504 185.005 398.962 177.858 C 398.413 170.606 393.736 163.216 385.549 155.034 L 385.55499999999995 155.028 L 360.59899999999993 130.35899999999998 z" stroke-linecap="round" />
</g>
		<g transform="matrix(18.64 0 0 18.64 0 0)" id="1rbGp2FMZq5nUrBMJqohe"  >
<path style="stroke: none; stroke-width: 1; stroke-dasharray: none; stroke-linecap: butt; stroke-dashoffset: 0; stroke-linejoin: miter; stroke-miterlimit: 4; fill: rgb(129,255,217); fill-rule: nonzero; opacity: 1;" vector-effect="non-scaling-stroke"  transform=" translate(-30.43, 15.82)" d="M 9.25 -1.8 Q 9.1 -1.05 8.38 -0.53 Q 7.65 0 6.35 0 L 6.35 0 Q 5.25 0 4.63 -0.6 Q 4 -1.2 3.95 -1.85 L 3.95 -1.85 Q 4.25 -3.95 4.25 -8.15 L 4.25 -8.15 Q 4.25 -10.65 3.95 -15.85 L 3.95 -15.85 Q 3.6 -20.75 3.6 -24.55 L 3.6 -24.55 Q 3.6 -26.6 3.8 -28.75 L 3.8 -28.75 Q 3.8 -29.45 4.63 -30.25 Q 5.45 -31.05 6.9 -31.25 L 6.9 -31.25 Q 11.65 -31.75 18.55 -31.75 L 18.55 -31.75 L 20.15 -31.75 Q 21.95 -31.75 23.68 -31.1 Q 25.4 -30.45 25.4 -28.85 L 25.4 -28.85 Q 25.4 -27.8 24.9 -27.2 Q 24.4 -26.6 23.05 -26.6 L 23.05 -26.6 Q 22.4 -26.6 21.55 -26.7 Q 20.7 -26.8 20.35 -26.85 L 20.35 -26.85 Q 18.45 -27.15 17.4 -27.15 L 17.4 -27.15 Q 11.6 -27.15 8.65 -26.35 L 8.65 -26.35 Q 8.65 -24.7 8.75 -21 L 8.75 -21 L 8.8 -17.8 Q 11.4 -17.8 13.45 -18.03 Q 15.5 -18.25 15.8 -18.3 L 15.8 -18.3 Q 18.4 -18.6 19.25 -18.6 L 19.25 -18.6 Q 20.45 -18.6 21.28 -18.07 Q 22.1 -17.55 22.1 -16.45 L 22.1 -16.45 Q 22.1 -13.95 18.6 -13.95 L 18.6 -13.95 Q 17.75 -13.95 17.1 -13.9 Q 16.45 -13.85 16 -13.8 L 16 -13.8 Q 14.2 -13.6 13.15 -13.6 L 13.15 -13.6 Q 10.85 -13.6 9.25 -13.45 L 9.25 -13.45 Q 9.25 -11.6 9.4 -9.55 L 9.4 -9.55 Q 9.4 -8.9 9.47 -7.55 Q 9.55 -6.2 9.55 -5.1 L 9.55 -5.1 Q 9.55 -4.15 9.5 -3.35 Q 9.45 -2.55 9.25 -1.8 L 9.25 -1.8 Z M 56.2 -3.8 Q 56.7 -3.55 56.97 -3.15 Q 57.25 -2.75 57.25 -2 L 57.25 -2 Q 57.25 -1.05 56.52 -0.48 Q 55.8 0.1 54.85 0.1 L 54.85 0.1 Q 53.75 0.1 52.35 -0.45 L 52.35 -0.45 Q 49.55 -1.7 46.87 -5.08 Q 44.2 -8.45 40.45 -14.8 L 40.45 -14.8 Q 37.6 -12.6 34.65 -10.7 L 34.65 -10.7 Q 34.65 -9.65 34.72 -8.28 Q 34.8 -6.9 34.8 -6.25 L 34.8 -6.25 Q 34.9 -3.35 34.9 -2.4 L 34.9 -2.4 Q 34.9 -1.55 34.35 -0.78 Q 33.8 0 32.7 0 L 32.7 0 Q 31.1 0 30.4 -0.53 Q 29.7 -1.05 29.55 -2.05 L 29.55 -2.05 Q 29.15 -4.55 29.15 -6.85 L 29.15 -6.85 Q 29.15 -9.45 29.55 -14.35 L 29.55 -14.35 Q 29.95 -19.05 29.95 -21.4 L 29.95 -21.4 Q 29.95 -22.3 29.85 -24 L 29.85 -24 Q 29.8 -25.35 29.55 -26.5 L 29.55 -26.5 Q 29.35 -28.1 29.35 -28.75 L 29.35 -28.75 Q 29.35 -30.35 30.05 -31.05 Q 30.75 -31.75 32.2 -31.75 L 32.2 -31.75 Q 33.3 -31.75 34.02 -31.13 Q 34.75 -30.5 34.85 -29.45 L 34.85 -29.45 Q 35.1 -25.2 35.1 -22.9 L 35.1 -22.9 Q 35.05 -21.65 34.92 -19.33 Q 34.8 -17 34.7 -16.4 L 34.7 -16.4 Q 36.4 -17.35 41.37 -21.88 Q 46.35 -26.4 48.45 -29 L 48.45 -29 L 49.1 -29.75 Q 49.9 -30.8 50.45 -31.2 Q 51 -31.6 51.95 -31.6 L 51.95 -31.6 Q 52.9 -31.6 53.67 -30.98 Q 54.45 -30.35 54.45 -29.5 L 54.45 -29.5 Q 54.45 -27.85 52.75 -26.15 L 52.75 -26.15 Q 48.6 -21.85 44.45 -18.15 L 44.45 -18.15 Q 50.3 -7.2 56.2 -3.8 L 56.2 -3.8 Z" stroke-linecap="round" />
</g>
		<g transform="matrix(4.46 0 0 4.46 0 0)" id="aQE1oTAY6Sfh3yT6yJcmN"  >
<path style="stroke: none; stroke-width: 1; stroke-dasharray: none; stroke-linecap: butt; stroke-dashoffset: 0; stroke-linejoin: miter; stroke-miterlimit: 4; fill: none; fill-rule: nonzero; opacity: 1;" vector-effect="non-scaling-stroke"  transform=" translate(-224, -180)" d="M 0 360 L 0 0 L 448 0 L 448 360 z" stroke-linecap="round" />
</g>
</g>
</g>
</svg>